<svg xmlns="http://www.w3.org/2000/svg" xmlns:xlink="http://www.w3.org/1999/xlink" width="500" viewBox="0 0 375 374.999991" height="500" preserveAspectRatio="xMidYMid meet"><defs><clipPath id="ade9f55426"><path d="M 35.15625 1 L 339 1 L 339 375 L 35.15625 375 Z M 35.15625 1 " clip-rule="nonzero"></path></clipPath></defs><g clip-path="url(#ade9f55426)"><path fill="#f0392e" d="M 336.339844 179.941406 L 319.359375 170.433594 C 319.058594 170.261719 318.742188 170.125 318.414062 170.019531 C 318.085938 169.914062 317.75 169.84375 317.40625 169.804688 C 317.0625 169.765625 316.71875 169.761719 316.375 169.792969 C 316.03125 169.824219 315.691406 169.886719 315.359375 169.984375 C 315.03125 170.082031 314.710938 170.214844 314.40625 170.375 C 314.101562 170.539062 313.816406 170.730469 313.550781 170.949219 C 313.28125 171.167969 313.039062 171.410156 312.820312 171.679688 C 312.605469 171.945312 312.414062 172.234375 312.253906 172.539062 L 297.148438 201.3125 L 274.320312 201.3125 C 274.449219 200.839844 274.515625 200.359375 274.515625 199.867188 C 274.515625 199.507812 274.480469 199.152344 274.410156 198.800781 C 274.339844 198.449219 274.234375 198.109375 274.097656 197.777344 C 273.960938 197.445312 273.792969 197.128906 273.59375 196.832031 C 273.394531 196.535156 273.167969 196.257812 272.914062 196.003906 C 272.660156 195.75 272.382812 195.523438 272.085938 195.324219 C 271.785156 195.125 271.472656 194.957031 271.140625 194.820312 C 270.808594 194.683594 270.464844 194.578125 270.113281 194.507812 C 269.761719 194.4375 269.40625 194.402344 269.046875 194.402344 L 268.480469 194.402344 L 255.347656 171.660156 L 251.949219 165.769531 C 251.988281 162.304688 251.96875 158.375 251.886719 153.910156 C 251.230469 118.265625 247.722656 108.679688 241.25 101.242188 C 238.992188 98.652344 236.453125 96.378906 233.628906 94.421875 L 76.335938 3.609375 C 75.59375 3.179688 74.8125 2.824219 73.996094 2.550781 C 73.183594 2.273438 72.351562 2.082031 71.496094 1.96875 C 70.644531 1.855469 69.789062 1.828125 68.929688 1.886719 C 68.074219 1.941406 67.230469 2.082031 66.398438 2.304688 C 65.566406 2.527344 64.765625 2.828125 63.996094 3.210938 C 63.226562 3.589844 62.5 4.042969 61.816406 4.566406 C 61.132812 5.089844 60.511719 5.675781 59.941406 6.320312 C 59.375 6.96875 58.878906 7.664062 58.449219 8.40625 C 58.015625 9.152344 57.664062 9.933594 57.386719 10.746094 C 57.109375 11.5625 56.917969 12.394531 56.804688 13.25 C 56.691406 14.101562 56.664062 14.957031 56.71875 15.816406 C 56.777344 16.675781 56.914062 17.519531 57.136719 18.351562 C 57.359375 19.179688 57.664062 19.980469 58.042969 20.753906 C 58.421875 21.527344 58.875 22.253906 59.398438 22.933594 C 59.921875 23.617188 60.507812 24.242188 61.15625 24.808594 C 61.800781 25.378906 62.5 25.875 63.242188 26.304688 L 216.757812 114.933594 C 220.789062 118.917969 224.054688 123.453125 226.546875 128.542969 C 228.082031 131.699219 230.921875 138.421875 231.785156 153.988281 C 232.054688 158.957031 232.070312 163.925781 231.839844 168.898438 L 230.960938 170.414062 L 217.113281 194.402344 L 216.539062 194.402344 C 216.179688 194.402344 215.828125 194.4375 215.472656 194.507812 C 215.121094 194.578125 214.78125 194.683594 214.449219 194.820312 C 214.117188 194.957031 213.800781 195.125 213.503906 195.324219 C 213.207031 195.523438 212.929688 195.75 212.675781 196.003906 C 212.421875 196.257812 212.195312 196.535156 211.996094 196.832031 C 211.796875 197.128906 211.628906 197.445312 211.492188 197.777344 C 211.355469 198.109375 211.25 198.449219 211.179688 198.800781 C 211.109375 199.152344 211.074219 199.507812 211.074219 199.867188 C 211.074219 200.359375 211.140625 200.839844 211.269531 201.3125 L 202.21875 201.3125 L 202.21875 144.925781 L 208.046875 148.292969 L 221.148438 125.597656 L 48.375 25.855469 L 35.269531 48.550781 L 147.671875 113.441406 L 147.671875 375 L 177.058594 375 L 177.058594 270.21875 C 177.574219 270.390625 178.109375 270.472656 178.65625 270.472656 L 291.371094 270.472656 C 291.84375 270.476562 292.304688 270.414062 292.761719 270.285156 C 293.214844 270.160156 293.644531 269.976562 294.046875 269.730469 C 294.453125 269.488281 294.816406 269.195312 295.140625 268.851562 C 295.460938 268.503906 295.734375 268.125 295.953125 267.707031 L 338.398438 186.855469 C 338.554688 186.558594 338.679688 186.253906 338.777344 185.933594 C 338.875 185.613281 338.9375 185.285156 338.972656 184.953125 C 339.003906 184.621094 339.003906 184.289062 338.972656 183.957031 C 338.941406 183.625 338.878906 183.296875 338.785156 182.976562 C 338.6875 182.65625 338.5625 182.347656 338.40625 182.050781 C 338.25 181.757812 338.070312 181.476562 337.859375 181.21875 C 337.648438 180.957031 337.417969 180.71875 337.160156 180.503906 C 336.90625 180.289062 336.632812 180.101562 336.339844 179.941406 Z M 290.734375 264.253906 L 179.703125 264.253906 L 179.703125 131.9375 L 195.988281 141.335938 L 195.988281 246.378906 L 244.339844 246.378906 L 244.339844 246.402344 L 280.503906 246.402344 L 301.773438 205.867188 L 304.164062 201.3125 L 317.253906 176.382812 L 332.40625 184.867188 Z M 290.734375 264.253906 " fill-opacity="1" fill-rule="nonzero"></path></g><path fill="#f0392e" d="M 274.515625 155.511719 C 275.050781 154.125 275.726562 152.804688 276.535156 151.558594 C 277.347656 150.3125 278.277344 149.164062 279.332031 148.113281 C 280.382812 147.058594 281.53125 146.128906 282.777344 145.316406 C 284.023438 144.507812 285.34375 143.832031 286.730469 143.296875 C 285.980469 143.152344 285.242188 142.949219 284.523438 142.695312 C 283.800781 142.4375 283.101562 142.128906 282.429688 141.769531 C 281.753906 141.410156 281.109375 141.003906 280.492188 140.550781 C 279.878906 140.09375 279.300781 139.597656 278.757812 139.054688 C 278.21875 138.515625 277.71875 137.9375 277.265625 137.320312 C 276.808594 136.707031 276.402344 136.0625 276.042969 135.386719 C 275.683594 134.710938 275.375 134.011719 275.121094 133.292969 C 274.863281 132.570312 274.664062 131.835938 274.515625 131.085938 C 274.367188 131.835938 274.164062 132.566406 273.90625 133.289062 C 273.644531 134.007812 273.335938 134.703125 272.976562 135.378906 C 272.617188 136.050781 272.207031 136.695312 271.75 137.308594 C 271.296875 137.921875 270.796875 138.5 270.257812 139.039062 C 269.71875 139.578125 269.140625 140.078125 268.527344 140.53125 C 267.914062 140.988281 267.269531 141.394531 266.597656 141.757812 C 265.921875 142.117188 265.226562 142.425781 264.507812 142.683594 C 263.789062 142.945312 263.054688 143.148438 262.304688 143.296875 C 263.777344 143.667969 265.175781 144.230469 266.5 144.980469 C 267.820312 145.730469 269.019531 146.644531 270.09375 147.71875 C 271.171875 148.792969 272.082031 149.992188 272.832031 151.316406 C 273.582031 152.636719 274.144531 154.035156 274.515625 155.511719 Z M 274.515625 155.511719 " fill-opacity="1" fill-rule="nonzero"></path><path fill="#f0392e" d="M 308.109375 137.78125 C 308.644531 136.394531 309.316406 135.078125 310.128906 133.828125 C 310.9375 132.582031 311.871094 131.433594 312.921875 130.382812 C 313.972656 129.328125 315.125 128.398438 316.371094 127.585938 C 317.617188 126.777344 318.933594 126.101562 320.324219 125.566406 C 319.570312 125.421875 318.835938 125.21875 318.113281 124.964844 C 317.394531 124.707031 316.695312 124.402344 316.019531 124.042969 C 315.34375 123.683594 314.699219 123.273438 314.085938 122.820312 C 313.46875 122.363281 312.890625 121.867188 312.351562 121.324219 C 311.808594 120.785156 311.3125 120.207031 310.855469 119.59375 C 310.402344 118.976562 309.996094 118.332031 309.636719 117.65625 C 309.277344 116.980469 308.96875 116.28125 308.710938 115.5625 C 308.457031 114.839844 308.253906 114.105469 308.109375 113.355469 C 307.960938 114.101562 307.753906 114.835938 307.496094 115.558594 C 307.238281 116.277344 306.929688 116.972656 306.570312 117.644531 C 306.207031 118.320312 305.800781 118.964844 305.34375 119.578125 C 304.890625 120.191406 304.390625 120.769531 303.851562 121.308594 C 303.308594 121.847656 302.734375 122.347656 302.121094 122.800781 C 301.507812 123.257812 300.863281 123.664062 300.1875 124.027344 C 299.515625 124.386719 298.820312 124.695312 298.097656 124.953125 C 297.378906 125.214844 296.644531 125.417969 295.894531 125.566406 C 297.371094 125.941406 298.769531 126.5 300.089844 127.253906 C 301.414062 128.003906 302.613281 128.914062 303.6875 129.992188 C 304.761719 131.066406 305.675781 132.265625 306.425781 133.585938 C 307.175781 134.910156 307.738281 136.308594 308.109375 137.78125 Z M 308.109375 137.78125 " fill-opacity="1" fill-rule="nonzero"></path><path fill="#f0392e" d="M 278.714844 106.519531 C 279.25 105.132812 279.921875 103.816406 280.734375 102.570312 C 281.542969 101.320312 282.476562 100.171875 283.527344 99.121094 C 284.578125 98.070312 285.730469 97.136719 286.976562 96.328125 C 288.222656 95.515625 289.539062 94.84375 290.929688 94.308594 C 290.175781 94.160156 289.441406 93.960938 288.71875 93.703125 C 288 93.449219 287.300781 93.140625 286.625 92.78125 C 285.949219 92.421875 285.304688 92.015625 284.691406 91.558594 C 284.074219 91.105469 283.496094 90.605469 282.957031 90.066406 C 282.414062 89.523438 281.917969 88.945312 281.460938 88.332031 C 281.007812 87.714844 280.601562 87.070312 280.242188 86.394531 C 279.882812 85.71875 279.574219 85.023438 279.316406 84.300781 C 279.0625 83.578125 278.859375 82.84375 278.714844 82.09375 C 278.5625 82.84375 278.359375 83.578125 278.101562 84.296875 C 277.84375 85.015625 277.535156 85.714844 277.175781 86.386719 C 276.8125 87.0625 276.40625 87.703125 275.949219 88.320312 C 275.496094 88.933594 274.996094 89.507812 274.457031 90.050781 C 273.914062 90.589844 273.339844 91.089844 272.722656 91.542969 C 272.109375 92 271.464844 92.40625 270.792969 92.769531 C 270.117188 93.128906 269.421875 93.4375 268.703125 93.695312 C 267.984375 93.953125 267.25 94.15625 266.5 94.308594 C 267.972656 94.679688 269.371094 95.242188 270.695312 95.992188 C 272.015625 96.742188 273.214844 97.652344 274.292969 98.730469 C 275.367188 99.804688 276.277344 101.003906 277.03125 102.324219 C 277.78125 103.648438 278.339844 105.046875 278.710938 106.519531 Z M 278.714844 106.519531 " fill-opacity="1" fill-rule="nonzero"></path></svg>