<svg xmlns="http://www.w3.org/2000/svg" xmlns:xlink="http://www.w3.org/1999/xlink" width="500" viewBox="0 0 375 374.999991" height="500" preserveAspectRatio="xMidYMid meet"><defs><clipPath id="58da4fb97a"><path d="M 27.890625 0 L 347 0 L 347 375 L 27.890625 375 Z M 27.890625 0 " clip-rule="nonzero"></path></clipPath></defs><g clip-path="url(#58da4fb97a)"><path fill="#f0392e" d="M 39.484375 366.332031 C 39.484375 369.535156 36.890625 372.132812 33.6875 372.132812 C 30.484375 372.132812 27.890625 369.535156 27.890625 366.332031 L 27.890625 349.621094 C 27.890625 346.417969 30.484375 343.824219 33.6875 343.824219 C 36.886719 343.824219 39.484375 346.417969 39.484375 349.621094 Z M 161.90625 285.152344 C 157.742188 279 152.34375 274.570312 146.3125 272.707031 C 143.402344 271.820312 143.402344 267.699219 146.296875 266.808594 C 160.226562 262.523438 168.5625 245.871094 170.109375 231.042969 C 170.492188 227.359375 175.84375 227.359375 176.25 231.003906 C 177.90625 245.933594 186.078125 262.539062 200.050781 266.804688 C 202.960938 267.691406 202.964844 271.8125 200.066406 272.703125 C 186.136719 276.988281 177.800781 293.640625 176.253906 308.46875 C 175.871094 312.152344 170.519531 312.152344 170.113281 308.511719 C 169.109375 299.527344 166.167969 291.457031 161.90625 285.152344 Z M 205.804688 71.351562 C 202.613281 66.492188 198.476562 63 193.867188 61.539062 C 191.007812 60.636719 190.988281 56.554688 193.863281 55.644531 C 204.6875 52.226562 210.988281 38.800781 212.164062 27.203125 C 212.539062 23.511719 217.910156 23.511719 218.304688 27.167969 C 219.5625 38.863281 225.71875 52.199219 236.609375 55.644531 C 239.46875 56.550781 239.484375 60.628906 236.609375 61.539062 C 225.785156 64.960938 219.484375 78.386719 218.308594 89.984375 C 217.933594 93.675781 212.5625 93.675781 212.167969 90.019531 C 211.386719 82.820312 209.105469 76.371094 205.804688 71.351562 Z M 296.796875 78.714844 C 291.425781 69.875 284.449219 63.515625 276.65625 60.84375 C 273.882812 59.898438 273.863281 55.949219 276.65625 55 C 284.449219 52.328125 291.425781 45.972656 296.792969 37.132812 C 302.273438 28.113281 306.058594 16.566406 307.355469 3.703125 C 307.707031 -0.0078125 313.128906 -0.0117188 313.496094 3.671875 C 314.789062 16.546875 318.578125 28.105469 324.058594 37.132812 C 329.429688 45.972656 336.40625 52.328125 344.199219 55 C 346.972656 55.945312 346.992188 59.894531 344.199219 60.84375 C 336.40625 63.515625 329.429688 69.875 324.058594 78.714844 C 318.582031 87.734375 314.796875 99.28125 313.5 112.144531 C 313.148438 115.859375 307.726562 115.859375 307.359375 112.175781 C 306.066406 99.300781 302.28125 87.738281 296.796875 78.714844 Z M 143.238281 139.421875 C 142.304688 160.265625 134.792969 180.839844 121.195312 194 C 120.699219 194.484375 121.039062 195.328125 121.734375 195.328125 L 300.105469 195.328125 C 310.839844 195.328125 320.710938 188.867188 327.992188 178.421875 C 335.003906 168.363281 339.582031 154.730469 340.351562 139.496094 C 340.375 139.054688 340.027344 138.6875 339.582031 138.6875 L 144.011719 138.6875 C 143.597656 138.683594 143.257812 139.011719 143.238281 139.421875 Z M 119.265625 178.421875 C 127.578125 166.492188 132.039062 150.257812 131.722656 132.898438 C 131.691406 129.734375 134.296875 127.089844 137.519531 127.089844 L 247.746094 127.089844 C 248.152344 127.089844 248.484375 126.785156 248.515625 126.382812 C 248.820312 122.679688 249.320312 119.109375 250.039062 115.527344 C 250.132812 115.046875 249.769531 114.601562 249.28125 114.601562 L 53.984375 114.601562 C 53.617188 114.601562 53.3125 114.847656 53.230469 115.199219 C 48.742188 134.433594 51.082031 156.292969 60.007812 172.757812 C 60.179688 173.070312 60.117188 173.445312 59.855469 173.691406 C 39.753906 192.394531 27.886719 218.652344 27.886719 246.738281 L 27.886719 325.535156 C 27.886719 328.738281 30.484375 331.332031 33.683594 331.332031 C 36.886719 331.332031 39.484375 328.738281 39.484375 325.535156 L 39.484375 246.738281 C 39.484375 222.46875 49.402344 199.890625 66.378906 183.429688 C 66.695312 183.125 67.199219 183.140625 67.492188 183.464844 C 70.023438 186.269531 72.78125 188.644531 75.707031 190.519531 C 76.121094 190.78125 76.1875 191.351562 75.847656 191.703125 C 66.464844 201.449219 60.902344 214.539062 60.902344 228.515625 L 60.902344 299.890625 C 60.902344 303.089844 63.5 305.6875 66.703125 305.6875 C 69.902344 305.6875 72.5 303.089844 72.5 299.890625 L 72.5 228.515625 C 72.5 215.324219 78.804688 203.226562 88.984375 195.417969 C 89.367188 195.128906 90.449219 195.328125 91.378906 195.328125 C 102.113281 195.328125 111.984375 188.867188 119.265625 178.421875 Z M 270.617188 207.695312 C 270.617188 207.269531 270.964844 206.921875 271.390625 206.921875 L 293.3125 206.921875 C 293.738281 206.921875 294.085938 207.269531 294.085938 207.695312 L 294.085938 265.027344 C 294.085938 265.242188 294.007812 265.425781 293.859375 265.574219 L 251.132812 308.300781 C 250.980469 308.453125 250.90625 308.632812 250.90625 308.847656 L 250.90625 370.183594 C 250.90625 372.835938 248.742188 375 246.085938 375 L 232.257812 375 C 229.605469 375 227.441406 372.835938 227.441406 370.183594 L 227.441406 299.125 C 227.441406 298.914062 227.515625 298.730469 227.667969 298.582031 L 270.390625 255.855469 C 270.542969 255.703125 270.617188 255.519531 270.617188 255.308594 Z M 94.363281 232.070312 C 94.363281 228.871094 96.957031 226.273438 100.160156 226.273438 C 103.363281 226.273438 105.957031 228.871094 105.957031 232.070312 L 105.957031 294.429688 C 105.957031 297.628906 103.363281 300.226562 100.160156 300.226562 C 96.957031 300.226562 94.363281 297.632812 94.363281 294.429688 Z M 94.363281 318.511719 C 94.363281 315.3125 96.957031 312.714844 100.160156 312.714844 C 103.363281 312.714844 105.957031 315.308594 105.957031 318.511719 L 105.957031 335.226562 C 105.957031 338.425781 103.363281 341.023438 100.160156 341.023438 C 96.957031 341.023438 94.363281 338.429688 94.363281 335.226562 Z M 60.90625 323.972656 C 60.90625 320.769531 63.503906 318.175781 66.703125 318.175781 C 69.90625 318.175781 72.503906 320.769531 72.503906 323.972656 L 72.503906 340.6875 C 72.503906 343.886719 69.90625 346.484375 66.703125 346.484375 C 63.503906 346.484375 60.90625 343.886719 60.90625 340.6875 Z M 60.90625 323.972656 " fill-opacity="1" fill-rule="evenodd"></path></g></svg>